<?xml version="1.0" standalone="no"?>
<!DOCTYPE svg PUBLIC "-//W3C//DTD SVG 20010904//EN"
 "http://www.w3.org/TR/2001/REC-SVG-20010904/DTD/svg10.dtd">
<svg version="1.0" xmlns="http://www.w3.org/2000/svg"
 width="1280.000000pt" height="1280.000000pt" viewBox="0 0 1280.000000 1280.000000"
 preserveAspectRatio="xMidYMid meet">
<metadata>
Created by potrace 1.11, written by Peter Selinger 2001-2013
</metadata>
<g transform="translate(0.000000,1280.000000) scale(0.100000,-0.100000)"
fill="#000000" stroke="none">
<path d="M1065 9208 c-3 -7 -4 -1304 -3 -2883 l3 -2870 655 0 655 0 3 1102 2
1103 177 0 c97 0 206 -5 242 -11 222 -39 399 -206 655 -619 32 -52 130 -214
219 -360 263 -436 332 -550 393 -650 32 -52 122 -201 200 -330 l142 -235 746
-3 c527 -1 746 1 746 9 0 8 -287 463 -485 769 -24 37 -68 106 -185 290 -40 63
-93 147 -118 185 -74 115 -107 167 -150 235 -153 240 -184 287 -292 438 -117
166 -227 292 -371 428 -85 80 -177 143 -274 190 -53 25 -84 45 -75 48 8 3 65
23 125 44 278 99 500 236 691 427 247 246 377 501 445 870 17 92 17 445 0 545
-50 294 -134 493 -282 676 -164 202 -386 349 -684 454 -121 42 -167 54 -349
91 -306 61 -497 68 -1809 69 -805 0 -1019 -3 -1022 -12z m2125 -987 c234 -33
423 -128 525 -264 86 -113 125 -240 132 -421 11 -272 -61 -463 -241 -641 -124
-123 -256 -190 -441 -226 -86 -16 -147 -19 -442 -19 l-343 0 0 796 0 796 368
-5 c202 -3 401 -10 442 -16z"/>
<path d="M6160 9213 c0 -5 30 -93 66 -198 36 -104 71 -210 79 -235 8 -25 39
-117 69 -205 89 -257 251 -733 326 -955 38 -113 103 -304 145 -425 41 -121
118 -346 170 -500 52 -154 129 -379 171 -500 41 -121 82 -240 89 -265 8 -25
43 -130 80 -235 36 -104 97 -282 135 -395 38 -113 104 -304 145 -425 42 -121
82 -240 90 -265 7 -25 48 -144 90 -265 72 -209 127 -371 249 -730 l54 -160
741 -3 c408 -1 741 -1 741 1 0 1 25 74 55 162 31 88 71 205 90 260 19 55 54
159 79 230 25 72 81 236 126 365 147 426 192 554 215 625 13 39 54 156 90 260
36 105 81 235 100 290 19 55 59 172 90 260 31 88 63 180 70 205 8 25 39 117
70 205 31 88 72 205 90 260 19 55 64 186 100 290 37 105 77 222 90 260 13 39
54 156 90 260 36 105 86 249 110 320 24 72 69 202 100 290 31 88 71 205 90
260 19 55 59 172 90 260 30 88 71 205 89 260 19 55 60 172 90 260 31 88 56
166 56 173 0 10 -140 12 -682 10 l-681 -3 -19 -60 c-10 -33 -29 -96 -42 -140
-13 -44 -39 -127 -56 -185 -18 -58 -38 -125 -45 -150 -40 -137 -59 -201 -75
-250 -11 -30 -23 -73 -29 -95 -5 -22 -19 -71 -31 -110 -12 -38 -32 -106 -45
-150 -13 -44 -33 -111 -45 -150 -12 -38 -32 -106 -45 -150 -12 -44 -38 -132
-58 -195 -19 -63 -47 -155 -62 -205 -15 -49 -35 -117 -45 -150 -10 -33 -30
-100 -45 -150 -14 -49 -30 -101 -35 -115 -4 -14 -15 -50 -24 -80 -8 -30 -32
-109 -52 -175 -20 -66 -46 -156 -59 -200 -13 -44 -33 -111 -45 -150 -12 -38
-32 -106 -45 -150 -13 -44 -33 -111 -45 -150 -22 -72 -52 -173 -94 -317 -13
-46 -40 -137 -60 -203 -20 -66 -44 -145 -52 -175 -9 -30 -20 -66 -24 -80 -22
-64 -52 -175 -75 -275 -38 -161 -42 -182 -56 -277 -7 -48 -16 -85 -20 -82 -4
2 -10 34 -14 71 -4 38 -13 100 -21 138 -8 39 -19 95 -24 125 -6 30 -15 66 -19
80 -5 14 -14 43 -20 65 -15 57 -61 215 -71 245 -4 14 -18 59 -30 100 -12 41
-25 86 -30 100 -5 14 -16 52 -25 85 -10 33 -25 85 -35 115 -10 30 -25 80 -33
110 -9 30 -33 109 -53 175 -20 66 -40 136 -46 155 -5 19 -22 76 -37 125 -16
50 -35 115 -44 145 -25 88 -78 263 -87 290 -5 14 -16 52 -25 85 -9 33 -21 71
-25 85 -5 14 -21 66 -35 115 -15 50 -35 117 -45 150 -35 115 -91 306 -144 485
-8 25 -27 90 -44 145 -17 55 -43 141 -57 190 -15 50 -35 117 -45 150 -10 33
-30 101 -45 150 -15 50 -35 117 -45 150 -10 33 -30 101 -45 150 -15 50 -35
117 -45 150 -10 33 -30 101 -45 150 -15 50 -35 117 -46 150 -10 33 -23 79 -29
103 l-11 42 -704 0 c-388 0 -705 -3 -705 -7z"/>
</g>
</svg>
