<?xml version="1.0" standalone="no"?>
<!DOCTYPE svg PUBLIC "-//W3C//DTD SVG 20010904//EN"
 "http://www.w3.org/TR/2001/REC-SVG-20010904/DTD/svg10.dtd">
<svg version="1.0" xmlns="http://www.w3.org/2000/svg"
 width="512.000000pt" height="512.000000pt" viewBox="0 0 512.000000 512.000000"
 preserveAspectRatio="xMidYMid meet">
<metadata>
Created by potrace 1.11, written by Peter Selinger 2001-2013
</metadata>
<g transform="translate(0.000000,512.000000) scale(0.100000,-0.100000)"
fill="#000000" stroke="none">
<path d="M2274 3839 l-30 -92 -84 -23 -84 -23 -54 47 c-106 92 -85 90 -202 22
-57 -32 -107 -63 -112 -68 -4 -4 0 -50 11 -103 l20 -94 -62 -62 -62 -62 -94
20 c-53 11 -99 15 -103 11 -5 -5 -36 -55 -68 -112 -68 -117 -70 -96 22 -202
l47 -54 -23 -84 -23 -84 -92 -30 -92 -30 3 -136 3 -135 89 -31 90 -31 18 -72
c9 -40 20 -76 24 -82 3 -5 -24 -43 -61 -84 l-66 -75 55 -98 c84 -148 65 -136
175 -113 l94 19 62 -61 61 -62 -17 -85 c-10 -47 -18 -90 -19 -97 0 -17 218
-145 233 -136 7 3 42 33 79 66 l67 59 48 -15 c26 -9 62 -18 80 -22 33 -7 48
-33 84 -153 l12 -43 135 3 135 3 33 90 c26 72 33 105 33 169 1 71 -1 77 -16
71 -34 -14 -257 -18 -333 -6 -274 43 -525 219 -665 466 -136 239 -157 544 -55
796 85 211 230 375 420 477 128 69 217 97 358 111 485 50 938 -298 1013 -779
12 -76 8 -299 -6 -332 -6 -16 0 -18 71 -17 64 0 97 7 169 33 l90 33 3 137 c1
84 -1 136 -7 136 -6 0 -47 14 -93 30 l-83 30 -22 82 -22 83 58 65 c31 36 61
70 64 77 9 14 -118 233 -135 233 -6 0 -50 -7 -98 -17 l-87 -16 -60 60 -61 59
19 95 c23 110 35 91 -113 175 l-98 55 -75 -66 c-41 -37 -79 -64 -84 -61 -6 4
-42 15 -82 24 l-72 18 -31 90 -31 89 -135 3 -136 3 -30 -92z"/>
<path d="M2345 3564 c-86 -13 -187 -40 -255 -68 -256 -108 -452 -344 -516
-622 -26 -111 -24 -300 5 -409 88 -333 348 -582 680 -651 87 -17 260 -20 341
-4 124 23 260 83 372 162 15 11 26 4 82 -51 l64 -63 -20 -34 c-11 -19 -17 -41
-13 -53 10 -31 531 -544 573 -563 95 -44 208 -1 253 97 23 50 24 109 1 157
-19 42 -532 563 -563 573 -12 4 -34 -2 -53 -13 l-34 -20 -63 64 c-55 56 -62
67 -51 82 79 112 139 248 162 372 16 81 13 254 -4 341 -69 331 -322 595 -649
679 -76 19 -252 33 -312 24z m263 -180 c238 -53 447 -249 522 -489 30 -96 37
-264 16 -365 -19 -90 -89 -236 -147 -305 -100 -120 -263 -221 -409 -251 -101
-21 -269 -14 -365 16 -194 61 -355 201 -441 387 -47 99 -66 189 -65 308 0 201
68 363 211 505 182 183 421 251 678 194z m1029 -1676 c219 -220 252 -258 259
-291 8 -46 -7 -104 -36 -135 -41 -44 -77 -13 -47 40 9 17 17 46 17 66 0 34
-15 51 -247 284 -244 244 -247 248 -228 268 10 11 21 20 24 20 4 0 120 -114
258 -252z"/>
</g>
</svg>
